<?xml version="1.0" encoding="utf-8"?>
<!-- Generator: Adobe Illustrator 24.3.0, SVG Export Plug-In . SVG Version: 6.00 Build 0)  -->
<svg version="1.1" id="Layer_1" xmlns="http://www.w3.org/2000/svg" xmlns:xlink="http://www.w3.org/1999/xlink" x="0px" y="0px"
	 viewBox="0 0 512 512" style="enable-background:new 0 0 512 512;" xml:space="preserve">
<style type="text/css">
	.st0{fill:#424242;}
</style>
<g>
	<path class="st0" d="M161.1,298.7h288.8l46.8-167.1c2.2-7.7-3.6-15.3-11.6-15.3h-59.3L402,42.8c-1.8-5.5-7.7-8.5-13.2-6.7l-92.7,30
		c-5.5,1.8-8.5,7.7-6.7,13.2l12.1,36.9h-5.3l-24.5-73.6c-1.8-5.4-7.7-8.4-13.1-6.6l-92.8,30.1c-5.5,1.8-8.5,7.7-6.7,13.2l12.1,36.9
		H111l-12.5-50c-6.3-25-28.1-42.7-53.2-42.7h-24c-5.8,0-10.4,4.7-10.4,10.4l0,0c0,5.8,4.7,10.4,10.4,10.4h24
		c15.6,0,29.2,10.4,33.4,26.1L134.1,287c-11.5,8.3-19.1,21.9-18.9,37.4c0.3,25,21.6,45.4,46.6,45.4h270.3c5.8,0,10.4-4.7,10.4-10.4
		l0,0c0-5.8-4.7-10.4-10.4-10.4h-271c-13.6,0-25-11.5-25-25C136.1,310.2,147.6,298.7,161.1,298.7L161.1,298.7z M385.3,58.9
		l18.8,56.3h-81.3l-11.5-32.3L385.3,58.9z M255,58.9l18.8,56.3h-81.3L181,82.9L255,58.9z M473.9,136.1l-39.6,141.8H152.8
		l-36.5-141.8L473.9,136.1L473.9,136.1z"/>
	<path class="st0" d="M350.9,400.9c-24,0-43.8,19.8-43.8,43.8s19.8,43.8,43.8,43.8c25,0,43.8-19.8,43.8-43.8
		S374.9,400.9,350.9,400.9z M350.9,468.7c-13.6,0-24-11.5-24-24c0-13.6,11.5-24,24-24c13.6,0,24,10.4,24,24S363.4,468.7,350.9,468.7
		z"/>
	<path class="st0" d="M190.3,400.9c-24,0-43.8,19.8-43.8,43.8s19.8,43.8,43.8,43.8s43.8-19.8,43.8-43.8S214.3,400.9,190.3,400.9z
		 M190.3,468.7c-13.6,0-24-11.5-24-24c0-13.6,11.5-24,24-24s24,10.4,24,24S202.8,468.7,190.3,468.7z"/>
</g>
</svg>
